<?xml version="1.0" encoding="iso-8859-1"?>
<!-- Generator: Adobe Illustrator 18.0.0, SVG Export Plug-In . SVG Version: 6.00 Build 0)  -->
<!DOCTYPE svg PUBLIC "-//W3C//DTD SVG 1.1//EN" "http://www.w3.org/Graphics/SVG/1.1/DTD/svg11.dtd">
<svg version="1.1" id="Capa_1" xmlns="http://www.w3.org/2000/svg" xmlns:xlink="http://www.w3.org/1999/xlink" x="0px" y="0px"
	 viewBox="0 0 59 59" style="enable-background:new 0 0 59 59;" xml:space="preserve">
<line style="fill:none;stroke:#000000;stroke-width:2;stroke-linecap:round;stroke-miterlimit:10;" x1="47" y1="1" x2="58" y2="1"/>
<path d="M51.29,9C50.027,9,49,10.027,49,11.289v5.422C49,16.87,48.87,17,48.71,17H48V1c0-0.047-0.02-0.087-0.027-0.132
	c-0.009-0.069-0.017-0.135-0.041-0.202c-0.024-0.068-0.061-0.125-0.098-0.185c-0.023-0.038-0.033-0.081-0.062-0.116
	c-0.01-0.013-0.026-0.018-0.037-0.03c-0.047-0.052-0.104-0.09-0.161-0.132c-0.051-0.037-0.097-0.077-0.153-0.103
	c-0.051-0.024-0.106-0.033-0.162-0.048c-0.072-0.02-0.142-0.04-0.217-0.044C47.029,0.008,47.016,0,47,0
	c-0.044,0-0.082,0.02-0.124,0.025c-0.072,0.009-0.142,0.017-0.211,0.042c-0.066,0.024-0.122,0.06-0.18,0.096
	c-0.039,0.024-0.083,0.034-0.119,0.064L3.841,35.191c-0.426,0.351-0.488,0.981-0.137,1.407c0.198,0.241,0.484,0.365,0.773,0.365
	c0.224,0,0.449-0.074,0.635-0.228L7,35.183V49H2.29C1.027,49,0,50.027,0,51.289V59h59V9H51.29z M41.29,17
	C40.027,17,39,18.027,39,19.289V25h-1V9.695l8-6.578V17H41.29z M32.29,25C31.027,25,30,26.027,30,27.289v5.422
	C30,32.87,29.87,33,29.71,33H29V17.095l7-5.756V25H32.29z M22.29,33C21.027,33,20,34.027,20,35.289v5.422
	C20,40.87,19.87,41,19.71,41H19V25.317l8-6.578V33H22.29z M9,33.539l8-6.578V41h-4.71C11.027,41,10,42.027,10,43.289v5.422
	C10,48.87,9.87,49,9.71,49H9V33.539z"/>
<g>
</g>
<g>
</g>
<g>
</g>
<g>
</g>
<g>
</g>
<g>
</g>
<g>
</g>
<g>
</g>
<g>
</g>
<g>
</g>
<g>
</g>
<g>
</g>
<g>
</g>
<g>
</g>
<g>
</g>
</svg>
